<?xml version="1.0" encoding="utf-8"?>
<!-- Created by UniConvertor 2.0rc5 (https://sk1project.net/) -->
<svg xmlns="http://www.w3.org/2000/svg" height="512.0px" width="512.0px" version="1.1" xmlns:xlink="http://www.w3.org/1999/xlink" id="f3d5efc4-507e-11ed-9094-a8a1598cb569">

<g>
	<path style="fill:#ffffff;" d="M 0.0,0.0 L 0.0,512.0 512.0,512.0 512.0,0.0 0.0,0.0 Z" />
	<path style="fill:#753169;" d="M 246.0,106.424 C 209.556,111.212 176.987,122.84 150.039,149.09 137.754,161.057 128.277,175.702 120.756,191.0 93.298,246.85 105.273,319.3 150.09,362.83 183.09,394.883 229.429,410.384 275.0,404.714 347.155,395.736 402.789,334.42 405.961,262.0 409.639,178.008 333.353,94.9495 246.0,106.424 Z" />
	<path style="fill:#9d6d95;" d="M 225.0,210.0 L 210.0,225.0 210.0,226.0 231.0,247.0 C 233.195,249.197 237.944,252.542 237.944,256.0 237.944,259.458 233.195,262.803 231.0,265.0 L 210.0,286.0 210.0,287.0 225.0,302.0 226.0,302.0 247.0,281.0 C 249.197,278.805 252.542,274.056 256.0,274.056 259.458,274.056 262.803,278.805 265.0,281.0 L 286.0,302.0 287.0,302.0 302.0,287.0 302.0,286.0 281.0,265.0 C 278.805,262.803 274.056,259.458 274.056,256.0 274.056,252.542 278.805,249.197 281.0,247.0 L 302.0,226.0 302.0,225.0 287.0,210.0 286.0,210.0 265.0,231.0 C 262.803,233.195 259.458,237.944 256.0,237.944 252.542,237.944 249.197,233.195 247.0,231.0 239.94,223.947 233.168,215.754 225.0,210.0 Z" />
	<path style="fill:#ffffff;" d="M 225.0,212.0 L 212.0,225.0 212.0,226.0 233.0,247.0 C 235.222,249.227 239.793,252.497 239.793,256.0 239.793,259.503 235.222,262.773 233.0,265.0 L 212.0,286.0 212.0,287.0 225.0,300.0 226.0,300.0 247.0,279.0 C 249.227,276.778 252.497,272.207 256.0,272.207 259.503,272.207 262.773,276.778 265.0,279.0 L 286.0,300.0 287.0,300.0 300.0,287.0 300.0,286.0 279.0,265.0 C 276.778,262.773 272.207,259.503 272.207,256.0 272.207,252.497 276.778,249.227 279.0,247.0 L 300.0,226.0 300.0,225.0 287.0,212.0 286.0,212.0 265.0,233.0 C 262.773,235.222 259.503,239.793 256.0,239.793 252.497,239.793 249.227,235.222 247.0,233.0 239.935,225.949 233.17,217.755 225.0,212.0 Z" />
</g>
</svg>